<?xml version="1.0" encoding="UTF-8" standalone="no"?>
<!DOCTYPE svg PUBLIC "-//W3C//DTD SVG 1.1//EN" "http://www.w3.org/Graphics/SVG/1.1/DTD/svg11.dtd">
<svg width="100%" height="100%" viewBox="0 0 457 151" version="1.1" xmlns="http://www.w3.org/2000/svg" xmlns:xlink="http://www.w3.org/1999/xlink" xml:space="preserve" xmlns:serif="http://www.serif.com/" style="fill-rule:evenodd;clip-rule:evenodd;stroke-linejoin:round;stroke-miterlimit:2;">
    <g transform="matrix(1,0,0,1,-451.999,-718.746)">
        <g transform="matrix(0.391959,0,0,0.275509,264.32,516.197)">
            <path d="M555.893,1152.59L551.11,1011.19L729.168,744.255L824.841,744.255L664.323,990.013L616.486,1062.61L555.893,1152.59ZM478.823,1273.58L478.823,744.255L564.398,744.255L564.398,1273.58L478.823,1273.58ZM733.42,1273.58L601.072,1042.94L657.413,955.985L833.877,1273.58L733.42,1273.58Z" style="fill-rule:nonzero;"/>
        </g>
        <g transform="matrix(0.391959,0,0,0.275509,264.32,516.197)">
            <path d="M872.147,1273.58L872.147,744.255L1041.17,744.255C1081.57,744.255 1117.18,755.22 1148,777.149C1178.83,799.078 1202.93,829.703 1220.29,869.025C1237.65,908.346 1246.34,954.977 1246.34,1008.92C1246.34,1062.35 1237.65,1108.86 1220.29,1148.43C1202.93,1188.01 1178.83,1218.76 1148,1240.68C1117.18,1262.62 1081.57,1273.58 1041.17,1273.58L872.147,1273.58ZM958.252,1173.01L1036.92,1173.01C1061.72,1173.01 1083.25,1166.33 1101.5,1152.97C1119.75,1139.61 1133.92,1120.58 1144.02,1095.88C1154.12,1071.18 1159.17,1042.19 1159.17,1008.92C1159.17,975.141 1154.12,946.029 1144.02,921.579C1133.92,897.129 1119.75,878.225 1101.5,864.866C1083.25,851.506 1061.72,844.827 1036.92,844.827L958.252,844.827L958.252,1173.01Z" style="fill-rule:nonzero;"/>
        </g>
        <g transform="matrix(0.391959,0,0,0.275509,264.32,516.197)">
            <path d="M1489.24,1282.65C1460.54,1282.65 1433.87,1275.97 1409.25,1262.62C1384.62,1249.26 1363.27,1230.23 1345.2,1205.52C1327.13,1180.82 1313.04,1151.84 1302.94,1118.56C1292.84,1085.29 1287.79,1048.74 1287.79,1008.92C1287.79,969.092 1292.84,932.543 1302.94,899.272C1313.04,866 1327.21,837.013 1345.46,812.311C1363.71,787.61 1385.06,768.579 1409.51,755.22C1433.96,741.861 1460.71,735.181 1489.77,735.181C1522.02,735.181 1551.16,743.121 1577.2,759.001C1603.25,774.881 1625.13,798.196 1642.85,828.947L1587.57,901.54C1574.81,880.871 1560.64,865.37 1545.05,855.035C1529.46,844.701 1512.45,839.534 1494.02,839.534C1476.66,839.534 1460.71,843.567 1446.19,851.633C1431.66,859.698 1419.08,871.293 1408.45,886.417C1397.82,901.54 1389.58,919.436 1383.73,940.105C1377.89,960.774 1374.96,983.711 1374.96,1008.92C1374.96,1034.12 1377.89,1057.06 1383.73,1077.73C1389.58,1098.4 1397.82,1116.29 1408.45,1131.42C1419.08,1146.54 1431.66,1158.14 1446.19,1166.2C1460.71,1174.27 1476.66,1178.3 1494.02,1178.3C1512.45,1178.3 1529.46,1173.13 1545.05,1162.8C1560.64,1152.46 1574.81,1136.71 1587.57,1115.54L1642.85,1188.13C1625.13,1218.88 1603.25,1242.32 1577.2,1258.46C1551.16,1274.59 1521.84,1282.65 1489.24,1282.65Z" style="fill-rule:nonzero;"/>
        </g>
    </g>
</svg>
